<?xml version="1.0" encoding="UTF-8"?>
<svg width="256" height="256" version="1.1"
     xmlns="http://www.w3.org/2000/svg"
     xmlns:xlink="http://www.w3.org/1999/xlink">
  <defs>
    <linearGradient id="Gradient" x1="0" x2="0" y1="0" y2="1">
      <stop offset="0%" style="stop-color:#9141AC;stop-opacity:1" />
      <stop offset="100%" style="stop-color:#9141AC;stop-opacity:1" />
    </linearGradient>
    <filter id="alpha-to-white">
      <feColorMatrix in="SourceGraphic" type="matrix"
                     values="0 0 0 0 1 0 0 0 0 1 0 0 0 0 1 0 0 0 1 0"/>
    </filter>
    <g id="child-svg"><svg xmlns="http://www.w3.org/2000/svg" version="1.0" width="394.000000pt" height="379.000000pt" viewBox="32.377 48.475 326.887 291.396" preserveAspectRatio="xMidYMid meet">
  <g transform="matrix(0.10139, 0, 0, -0.10139, -1.424011, 381.035492)" fill="#000000" stroke="none">
    <path d="M1095 3229 c-381 -217 -641 -573 -737 -1008 -30 -134 -32 -473 -4 -601 28 -132 63 -235 120 -355 80 -168 162 -283 300 -420 219 -218 441 -339 751 -411 107 -25 139 -28 295 -28 203 0 322 17 475 68 230 77 411 186 577 345 126 120 201 217 291 373 l28 48 -103 -55 c-115 -60 -270 -115 -405 -142 -135 -27 -424 -24 -560 5 -468 102 -856 417 -1041 847 -78 181 -109 318 -118 520 -8 163 4 271 46 431 34 129 83 249 144 357 24 42 41 77 37 77 -4 0 -47 -23 -96 -51z" />
    <path d="M1638 3131 c-299 -98 -422 -458 -247 -720 22 -33 57 -74 76 -90 49 -41 138 -87 194 -101 l46 -12 6 -96 c8 -121 27 -194 80 -302 34 -69 59 -103 137 -181 85 -87 106 -102 200 -147 58 -28 132 -56 165 -63 77 -15 243 -15 320 0 76 16 246 98 306 149 169 141 266 330 277 540 l5 102 81 39 c242 114 339 392 223 635 -78 164 -243 266 -427 266 -159 0 -327 -94 -401 -225 l-29 -52 -48 9 c-72 15 -239 12 -312 -6 -37 -9 -66 -11 -68 -6 -2 5 -20 35 -41 67 -50 77 -109 128 -201 171 -69 33 -83 36 -180 39 -82 2 -118 -1 -162 -16z m903 -1110 c37 -38 37 -63 -2 -95 -25 -22 -41 -26 -89 -26 -48 0 -64 4 -89 26 -68 57 -19 123 92 124 52 0 62 -4 88 -29z" />
  </g>
</svg></g>
  </defs>
  <rect
      width="256"
      height="256"
      fill="url(#Gradient)"
      ry="0"
      x="0"
      y="0" />
  <use xlink:href="#child-svg" filter="url(#alpha-to-white)"
       transform="matrix(0.24365482233502536,0,0,0.2532981530343008,64,64)" />
</svg>
